<svg width="178" height="216" viewBox="0 0 178 216" fill="none" xmlns="http://www.w3.org/2000/svg">
<path d="M152.45 61.208C126.534 36.681 85.7661 29.341 53.1071 43.915C20.4311 58.496 -1.18093 94.272 0.0520676 129.89C1.40107 168.891 33.1261 208.387 72.7031 213.766C73.0521 213.813 73.3141 213.634 73.4491 213.394C109.82 220.958 147.995 201.938 165.726 169.513C184.412 135.338 181.552 88.75 152.45 61.208Z" fill="white"/>
<path d="M89.6071 202.417C85.0241 202.417 80.4531 201.95 76.0201 201.027L66.9661 199.144L66.6851 199.646C37.7521 191.548 13.7741 161.199 12.6761 129.453C11.6161 98.83 30.7861 67.707 58.2551 55.449C67.7071 51.232 78.0191 49.093 88.9031 49.093C109.475 49.093 129.473 56.852 143.768 70.382C166.973 92.343 171.647 132.355 154.643 163.452C141.7 187.121 116.172 202.416 89.6091 202.416C89.6071 202.417 89.6091 202.417 89.6071 202.417Z" fill="#2E3E8C"/>
<mask id="mask0_13_6465" style="mask-type:luminance" maskUnits="userSpaceOnUse" x="12" y="0" width="154" height="203">
<path d="M89.1201 202.634C84.5371 202.653 80.4531 201.949 76.0201 201.027L69.3391 201.785L62.7791 200.591C33.8471 192.494 13.7741 161.199 12.6761 129.453C11.6161 98.83 15.9971 19.106 43.4661 6.84801C52.9181 2.63101 67.6711 0 78.5561 0C99.1281 0 129.473 56.852 143.768 70.382C166.973 92.343 172.123 134.168 155.119 165.266C142.176 188.935 116.215 202.634 89.6521 202.634C89.6501 202.634 89.6831 202.632 89.1201 202.634Z" fill="white"/>
</mask>
<g mask="url(#mask0_13_6465)">
<path d="M66.0471 102.571C69.0081 101.471 68.7201 97.933 68.4181 95.274C67.0161 95.536 65.6141 95.706 64.2001 95.785C63.5581 97.069 62.8111 98.366 62.7981 99.82C62.7851 101.654 64.1351 103.291 66.0471 102.571Z" fill="white"/>
<path d="M71.5631 88.212C69.4541 79.212 67.5931 70.133 65.7861 61.041C63.1401 70.447 59.5371 79.657 54.6631 88.134C60.2571 89.771 65.9161 89.745 71.5631 88.212Z" fill="white"/>
<path d="M66.0601 51.084C67.8681 59.141 69.6371 67.224 71.2221 75.321C76.4491 71.718 82.6721 70.618 88.8431 72.321C87.0481 63.792 85.3581 55.237 83.6681 46.682C83.6161 46.695 83.5501 46.708 83.4851 46.695C77.0921 45.712 71.3271 47.127 66.1791 51.031C66.1391 51.071 66.1001 51.071 66.0601 51.084Z" fill="white"/>
<path d="M52.2651 92.378C59.0781 94.448 65.8381 94.553 72.6631 92.902C72.3621 91.684 72.0871 90.465 71.7981 89.247C65.9291 91.487 59.7451 91.553 53.7711 89.627C53.3131 90.387 52.8541 91.16 52.3821 91.907C52.2641 92.077 52.1201 92.169 51.9631 92.182L51.9761 92.339C52.0691 92.339 52.1601 92.352 52.2651 92.378Z" fill="white"/>
<path d="M61.5541 31.891C66.8081 28.445 73.6861 27.424 79.7121 29.166C74.9701 24.096 70.5811 18.371 66.5461 12.698C65.5491 19.17 64.0821 25.852 61.5541 31.891Z" fill="white"/>
<path d="M62.1561 33.529C63.3221 38.927 64.5401 44.3241 65.7591 49.7351C70.7241 45.7391 77.3011 44.206 83.4981 45.831C82.5021 40.787 81.4931 35.7431 80.4581 30.7131C73.8031 29.4021 68.0521 30.332 62.1561 33.529Z" fill="#C0111C"/>
<path d="M81.0871 99.047C81.1131 101.366 81.0871 103.698 80.9431 106.017C80.9691 105.729 81.1661 105.48 81.5591 105.48C84.8211 105.532 87.8081 105.152 90.8211 103.908C89.7601 101.982 88.8431 99.925 88.0311 98.065C88.0051 98.013 88.0051 97.973 87.9921 97.921C85.8171 98.667 83.4061 99.021 81.0871 99.047Z" fill="white"/>
<path d="M80.7731 108.178C84.8871 109.056 88.9221 108.623 92.8131 107.064C92.2761 106.343 91.7651 105.544 91.2801 104.706C88.3451 106.344 84.9261 107.221 81.5591 106.802C81.1661 106.763 80.9431 106.435 80.9301 106.121C80.8911 106.816 80.8381 107.497 80.7731 108.178Z" fill="white"/>
<path d="M74.7331 96.204C74.7591 96.348 74.7201 96.4791 74.6671 96.5971C74.7721 96.5451 74.9161 96.505 75.0731 96.518C78.4791 96.885 81.6101 97.2781 85.0171 96.5841C87.9911 95.9811 90.5981 94.5141 93.4671 93.6491C93.5461 93.6231 93.5981 93.6361 93.6641 93.6491C92.0001 86.9021 90.4941 80.089 89.0531 73.277C88.9351 73.369 88.7781 73.4081 88.5941 73.3691C82.5541 72.0591 76.5151 73.3301 71.5371 76.9461C72.5331 82.1211 73.4371 87.309 74.2101 92.51C74.4071 92.445 74.6031 92.405 74.8001 92.353C75.3111 92.196 75.6911 93.0211 75.1671 93.2441C74.9051 93.3621 74.6301 93.441 74.3551 93.545C74.4841 94.435 74.6151 95.313 74.7331 96.204Z" fill="#C0111C"/>
<path d="M98.6951 91.815C98.9701 92.732 99.1141 94.33 99.6771 95.09C100.293 95.915 102.9 94.71 104.524 93.977C103.135 92.195 101.681 90.387 100.502 88.461C99.6111 88.762 98.7071 89.011 97.7771 89.208C97.8031 89.234 97.8161 89.26 97.8291 89.287C98.2101 90.112 98.4461 90.95 98.6951 91.815Z" fill="white"/>
<path d="M93.2321 82.867C98.2101 81.413 102.638 79.828 106.936 76.88C99.7571 70.29 93.3241 62.888 87.3371 55.211C89.2761 64.513 91.1761 73.827 92.8661 83.168C92.9441 83.024 93.0611 82.906 93.2321 82.867Z" fill="white"/>
<path d="M93.8471 88.553C100.266 87.033 105.782 84.623 110.76 80.286C109.738 79.408 108.716 78.517 107.721 77.613C103.725 80.901 98.6031 83.587 93.4021 84.111C93.2451 84.137 93.1141 84.085 93.0221 84.006C93.2971 85.526 93.5721 87.032 93.8341 88.552H93.8471V88.553Z" fill="white"/>
<path d="M81.0871 99.047C83.4061 99.021 85.8161 98.667 87.9911 97.92C88.0041 97.972 88.0041 98.012 88.0301 98.064C88.8421 99.924 89.7591 101.981 90.8201 103.907C87.8071 105.152 84.8201 105.532 81.5581 105.479C81.1651 105.479 80.9691 105.728 80.9421 106.016C81.0871 103.698 81.1131 101.366 81.0871 99.047ZM68.4191 95.274C68.7201 97.934 69.0091 101.471 66.0481 102.571C64.1351 103.292 62.7861 101.654 62.7991 99.82C62.8121 98.366 63.5591 97.069 64.2011 95.785C65.6151 95.706 67.0171 95.536 68.4191 95.274ZM92.8121 107.065C88.9211 108.624 84.8861 109.056 80.7721 108.179C80.8381 107.498 80.8901 106.817 80.9291 106.122C80.9421 106.436 81.1651 106.764 81.5581 106.803C84.9251 107.222 88.3441 106.344 91.2791 104.707C91.7641 105.545 92.2751 106.344 92.8121 107.065ZM106.935 76.88C102.638 79.828 98.2101 81.413 93.2311 82.867C93.0611 82.906 92.9431 83.024 92.8641 83.168C91.1741 73.827 89.2741 64.512 87.3351 55.211C93.3231 62.888 99.7561 70.29 106.935 76.88ZM110.761 80.286C105.783 84.622 100.267 87.033 93.8481 88.553H93.8351C93.5731 87.033 93.2981 85.527 93.0231 84.007C93.1151 84.086 93.2461 84.138 93.4031 84.112C98.6041 83.588 103.727 80.902 107.722 77.614C108.717 78.518 109.739 79.408 110.761 80.286ZM97.7781 89.208C98.7081 89.011 99.6121 88.763 100.503 88.461C101.682 90.387 103.136 92.195 104.525 93.977C102.901 94.711 100.293 95.916 99.6781 95.09C99.1151 94.33 98.9711 92.732 98.6961 91.815C98.4471 90.95 98.2111 90.112 97.8311 89.286C97.8171 89.26 97.8041 89.234 97.7781 89.208ZM65.7851 61.041C67.5931 70.133 69.4531 79.212 71.5621 88.212C65.9161 89.745 60.2561 89.771 54.6621 88.133C59.5361 79.657 63.1391 70.447 65.7851 61.041ZM71.2221 75.321C69.6371 67.225 67.8681 59.141 66.0601 51.084C66.0991 51.071 66.1391 51.071 66.1781 51.032C71.3271 47.128 77.0911 45.713 83.4841 46.696C83.5501 46.709 83.6151 46.696 83.6671 46.683C85.3571 55.238 87.0471 63.793 88.8421 72.322C82.6721 70.618 76.4491 71.718 71.2221 75.321ZM79.7121 29.166C73.6861 27.424 66.8081 28.445 61.5541 31.891C64.0831 25.851 65.5501 19.17 66.5451 12.698C70.5801 18.371 74.9691 24.096 79.7121 29.166ZM74.3661 96.885C74.1431 97.33 74.3011 97.998 74.8511 98.182C76.2271 98.627 77.7861 98.903 79.4231 99.007C79.3841 102.099 79.4361 105.217 79.7501 108.296C79.3441 108.663 79.3311 109.449 80.0251 109.619C81.5971 110.012 83.1821 110.222 84.7541 110.222C82.5011 110.235 80.9811 112.449 80.9551 114.585C80.9551 116.354 82.0421 118.306 83.5231 119.537C77.2741 121.397 74.3651 129.625 78.8071 134.315C75.1651 134.354 72.0341 137.394 72.0211 141.062C66.6231 136.49 56.5361 138.822 56.0511 146.813C54.0331 144.52 51.2951 142.608 48.1641 142.804C45.5571 142.961 42.4911 144.808 42.2291 147.573C35.9141 138.271 20.4551 144.704 23.1801 156.141C23.2061 156.285 23.2851 156.39 23.3761 156.482C20.1931 171.286 27.6991 186.313 39.6741 195.235C53.7711 205.742 72.5701 207.301 89.5231 205.834C107.445 204.301 125.917 199.664 140.381 188.502C152.788 178.899 159.281 154.226 160.513 148.451C160.5 148.346 161.749 146.657 161.709 146.592C163.648 140.972 160.438 134.028 154.844 131.866C149.04 129.613 142.058 132.901 139.83 138.574C139.123 137.146 137.223 136.308 135.598 136.399C133.712 136.517 132.349 137.722 131.314 139.216C130.672 136.059 128.353 133.085 125.523 131.827C121.436 130.019 116.588 131.395 113.824 134.762C113.575 133.203 112.173 131.854 110.601 131.29C110.811 125.159 104.745 120.678 99.0331 121.949C99.5571 120.979 99.7401 119.787 99.3741 118.831C98.8761 117.482 97.5791 116.669 96.2171 116.551C97.2521 115.346 97.8021 113.616 97.6061 112.11C97.3051 109.909 95.6411 108.363 93.6501 107.813C93.7941 107.695 93.8601 107.538 93.8331 107.381C94.1601 107.263 94.3831 106.962 94.2261 106.529C93.0731 103.424 91.0561 100.227 89.2211 97.463C91.0291 96.69 92.6401 95.655 93.8461 94.306C93.8851 94.254 93.8981 94.201 93.9121 94.149C94.2261 94.346 94.7641 94.07 94.6851 93.586C94.4751 92.315 94.2531 91.057 94.0431 89.8C94.9211 89.734 95.7851 89.616 96.6371 89.472C96.5981 89.577 96.5711 89.695 96.5981 89.813C96.8211 91.437 97.4371 93.049 97.9211 94.621C98.1311 95.355 98.3141 96.232 98.9561 96.717C99.6371 97.228 100.332 97.084 101.078 96.861C102.716 96.363 104.327 95.643 105.912 95.027C106.488 94.804 106.633 94.215 106.253 93.756C104.733 91.869 103.24 89.878 101.55 88.123C105.572 86.63 109.279 84.258 112.411 81.324C113.053 80.734 112.542 79.909 111.887 79.791C111.887 79.791 111.887 79.791 111.887 79.778C103.136 70.843 94.5681 61.908 86.9691 51.938C86.8641 51.807 86.7331 51.715 86.5891 51.663C85.0691 44.444 83.5501 37.226 82.1091 30.007C82.0041 29.496 81.5981 29.326 81.2051 29.391C77.0131 22.67 71.8511 16.185 66.7021 10.159C66.6361 10.054 66.5581 9.96202 66.4661 9.88402C66.2701 9.66102 66.0731 9.42502 65.8771 9.20302C65.3271 8.56102 64.2261 9.41303 64.7111 10.107C64.8291 10.264 64.9341 10.421 65.0521 10.579C63.6241 17.968 61.6851 25.291 60.4411 32.706C60.3751 32.811 60.3231 32.942 60.3101 33.06C60.2051 33.244 60.1531 33.466 60.2051 33.728C61.9341 41.602 63.5061 49.528 65.0781 57.454C64.8951 57.559 64.7371 57.742 64.6591 58.004C61.8031 68.419 57.8071 78.153 53.1301 87.796C52.6711 87.901 52.4491 88.438 52.5931 88.896C52.1871 89.708 51.7941 90.521 51.3881 91.333C51.1521 91.805 51.5581 92.224 51.9641 92.185C52.1211 92.172 52.2651 92.08 52.3831 91.91C52.8551 91.163 53.3131 90.39 53.7721 89.63C59.7461 91.556 65.9301 91.49 71.7991 89.25C72.0871 90.468 72.3621 91.687 72.6641 92.905C65.8381 94.556 59.0781 94.451 52.2661 92.381C52.1611 92.355 52.0691 92.342 51.9781 92.342C51.1001 92.342 50.8121 93.77 51.7951 94.098C55.2931 95.264 58.8431 95.867 62.3941 95.867C61.5031 97.57 60.8741 99.509 61.4381 101.409C61.9361 103.047 63.3111 104.357 65.0801 104.37C66.8751 104.383 68.5521 103.112 69.3771 101.58C70.4511 99.563 70.1501 97.178 69.6391 95.016C70.7521 94.754 71.8661 94.466 72.9531 94.086C73.1631 94.898 73.3461 95.724 73.5561 96.536C73.6721 96.977 74.0651 97.042 74.3661 96.885ZM62.1561 33.529C68.0521 30.332 73.8031 29.402 80.4581 30.712C81.4931 35.743 82.5021 40.787 83.4981 45.83C77.3011 44.206 70.7241 45.738 65.7591 49.734C64.5411 44.324 63.3221 38.927 62.1561 33.529ZM74.6681 96.597C74.7201 96.479 74.7601 96.348 74.7341 96.204C74.6161 95.313 74.4851 94.435 74.3541 93.545C74.6291 93.44 74.9041 93.362 75.1661 93.244C75.6901 93.021 75.3101 92.196 74.7991 92.353C74.6021 92.405 74.4061 92.445 74.2091 92.51C73.4361 87.309 72.5321 82.121 71.5361 76.946C76.5141 73.33 82.5541 72.059 88.5931 73.369C88.7761 73.408 88.9341 73.369 89.0521 73.277C90.4931 80.089 92.0001 86.902 93.6631 93.649C93.5981 93.636 93.5451 93.623 93.4661 93.649C90.5971 94.514 87.9901 95.981 85.0161 96.584C81.6101 97.278 78.4791 96.885 75.0721 96.518C74.9171 96.505 74.7721 96.544 74.6681 96.597ZM74.8381 145.319C74.5891 144.494 74.2221 143.773 73.8031 143.105C73.8681 142.961 73.9081 142.804 73.8681 142.607C72.9641 138.428 76.2391 134.851 80.4841 135.65C80.7331 135.82 80.9821 135.991 81.2701 136.135C81.9911 136.502 82.8421 135.545 82.1741 134.969C79.5671 132.755 77.6671 129.991 78.4801 126.375C79.1871 123.218 81.8081 121.095 84.8081 120.349C85.0051 120.441 85.1881 120.532 85.3841 120.585C86.0261 120.781 86.4321 119.969 86.0131 119.511C85.9871 119.485 85.9471 119.459 85.9211 119.419C85.8691 119.327 85.8031 119.236 85.6981 119.196C84.5191 118.056 83.0651 117.283 82.5411 115.567C81.9521 113.641 82.9991 111.663 84.9911 111.257C85.5941 111.126 85.4231 110.222 84.8471 110.222C87.2711 110.209 89.6681 109.711 91.9351 108.715C93.9791 108.833 95.8911 110.248 96.0621 112.409C96.2321 114.623 94.6991 115.789 93.0621 116.837C92.5381 117.178 92.6951 118.147 93.3901 118.082C93.6131 118.069 93.8091 118.003 94.0061 117.951C94.1241 118.003 94.2551 117.99 94.3991 117.925C95.7091 117.283 97.5561 117.886 98.0151 119.353C98.5261 120.977 97.1371 122.052 95.8011 122.523C95.0671 122.785 95.2511 123.741 95.9711 123.82C96.1941 123.846 96.4031 123.833 96.6131 123.807C96.6781 123.82 96.7571 123.82 96.8361 123.794C102.902 121.685 107.998 125.209 108.81 131.026C105.613 131.209 103.504 134.563 103.085 137.472C102.98 138.153 103.937 138.468 104.159 137.76C104.775 135.756 105.849 133.424 108.024 132.703C108.339 132.598 108.64 132.546 108.941 132.533C109.046 133.24 110.107 133.45 110.395 132.808C111.64 133.384 112.426 134.76 112.308 136.293C112.256 136.896 113.107 137.158 113.461 136.725C113.605 136.738 113.762 136.699 113.867 136.555C116.435 133.306 120.81 131.537 124.78 133.332C128.684 135.114 129.562 138.572 129.627 142.319C129.601 142.398 129.562 142.476 129.535 142.542C129.417 142.791 129.496 143.014 129.64 143.171C129.64 143.25 129.64 143.315 129.64 143.394C128.985 143.355 128.317 143.381 127.662 143.486C126.981 143.591 127.072 144.6 127.662 144.77C128.396 144.98 129.129 145.189 129.876 145.399C130.348 145.543 130.649 145.15 130.636 144.757C131.71 144.901 132.758 145.216 133.78 145.779C134.343 146.093 134.815 145.268 134.278 144.927C133.269 144.272 132.169 143.814 131.016 143.578C131.304 142.805 131.448 142.019 131.488 141.207C132.169 140.028 133.008 138.914 134.187 138.259C136.152 137.159 138.432 138.22 138.772 140.394C138.877 141.049 139.938 141.023 140.069 140.394C140.082 140.315 140.095 140.224 140.108 140.145C140.265 140.132 140.422 140.066 140.501 139.883C142.885 134.8 148.545 131.341 154.139 133.529C159.825 135.756 161.279 142.005 159.733 147.351C159.576 147.914 160.502 148.591 160.96 148.578C156.768 183.859 124.465 200.2 91.6741 203.449C75.7041 205.034 58.2531 204.222 44.2351 195.575C30.6101 187.164 21.7141 170.827 26.0381 154.857C26.2871 153.966 25.4751 153.416 24.7671 153.508C25.5271 145.071 36.0211 141.376 41.5621 149.132C41.9941 149.735 42.8461 149.394 42.8461 148.791C43.1341 148.804 43.4231 148.647 43.5401 148.319C44.5881 145.424 47.0121 143.734 50.1691 144.48C52.5531 145.043 54.3351 146.72 55.9731 148.423C55.9341 148.436 55.8811 148.449 55.8421 148.475C54.4791 149.366 53.2611 150.977 53.2871 152.654C53.3131 153.519 54.5841 153.715 54.8071 152.864C55.2131 151.239 55.7761 149.942 57.3751 149.13C58.3181 148.658 60.1131 149.051 60.6241 147.964C60.7161 147.78 60.6631 147.61 60.5061 147.492C60.2311 147.309 60.4271 147.007 59.9691 147.007C59.9041 147.007 59.8901 147.099 59.9431 147.112C60.9251 147.282 59.5371 147.688 59.4711 147.702C58.9731 147.728 58.4891 147.623 57.9911 147.689C57.8341 147.715 57.6901 147.768 57.5331 147.807C58.4501 144.047 60.4021 140.85 64.5681 140.13C68.6821 139.409 72.2981 142.108 73.9751 145.685C74.2091 146.184 75.0081 145.817 74.8381 145.319Z" fill="#2E3E8C"/>
<path d="M73.8031 143.105C74.2221 143.773 74.5891 144.494 74.8381 145.319C75.0081 145.817 74.2091 146.184 73.9731 145.686C72.2961 142.109 68.6801 139.411 64.5661 140.131C60.4001 140.851 58.4481 144.048 57.5311 147.808C57.6881 147.769 57.8321 147.716 57.9891 147.69C58.4871 147.625 58.9531 148.506 57.3731 149.131C55.7751 149.943 55.2111 151.24 54.8051 152.865C54.5821 153.717 53.3121 153.52 53.2851 152.655C53.2591 150.978 54.4771 149.367 55.8401 148.476C55.8791 148.45 55.9321 148.437 55.9711 148.424C54.3331 146.721 52.5521 145.044 50.1671 144.481C47.0101 143.734 44.5861 145.424 43.5381 148.32C43.4201 148.648 43.3701 148.786 43.0091 149.144C42.5181 149.344 41.9931 149.735 41.5601 149.133C36.0181 141.377 25.5251 145.072 24.7651 153.509C24.5331 154.29 23.6501 156.582 23.4021 157.473C19.0791 173.443 30.6081 187.165 44.2331 195.576C58.2511 204.223 75.9931 207.747 91.9631 206.162C124.755 202.913 159.617 185.974 161.776 148.522C160.32 148.34 159.574 147.915 159.731 147.352C161.277 142.007 159.823 135.758 154.137 133.53C148.543 131.342 142.883 134.801 140.499 139.884C140.42 140.067 138.875 141.05 138.77 140.395C138.429 138.22 136.15 137.159 134.185 138.26C133.006 138.915 132.167 140.029 131.486 141.208C131.014 143.579 129.6 142.4 129.626 142.322C129.561 138.575 128.683 135.116 124.779 133.335C120.809 131.54 116.434 133.309 113.866 136.558C113.761 136.702 113.49 137.023 113.346 137.009C112.992 137.441 112.255 136.898 112.307 136.295C112.425 134.762 111.639 133.387 110.394 132.81C109.918 132.522 109.386 132.522 108.94 132.535C108.639 132.548 108.337 132.6 108.023 132.705C105.848 133.426 104.774 135.758 104.158 137.762C103.935 138.469 102.979 138.155 103.084 137.474C103.503 134.566 105.613 131.212 108.809 131.028C107.997 125.211 102.901 121.687 96.8351 123.796C96.7561 123.822 96.6781 123.822 96.6121 123.809C96.4021 123.835 96.1931 123.848 95.9701 123.822C95.2491 123.743 95.0661 122.787 95.8001 122.525C97.1361 122.053 98.5251 120.979 98.0141 119.355C97.5561 117.888 95.7081 117.285 94.3981 117.927C94.2541 117.992 94.1231 118.006 94.0051 117.953C93.8081 118.005 93.6121 118.071 93.3891 118.084C92.6951 118.15 92.5371 117.18 93.0611 116.839C94.6991 115.791 96.2311 114.625 96.0611 112.411C95.8911 110.249 93.9781 108.834 91.9341 108.717C89.6681 109.713 87.2701 110.21 84.8461 110.224C85.4221 110.224 85.5931 111.128 84.9901 111.259C82.9991 111.665 81.9511 113.643 82.5401 115.569C83.0641 117.285 84.5181 118.058 85.6971 119.198C85.8021 119.237 86.5341 119.625 86.2261 119.989C85.6541 120.665 85.5321 120.269 84.8061 120.351C81.8061 121.098 79.1861 123.22 78.4781 126.377C77.6661 129.993 78.6681 132.123 81.2751 134.337C81.9431 134.913 81.3871 135.985 80.4831 135.652C76.2381 134.853 72.9631 138.429 73.8671 142.609C73.9081 142.804 73.8691 142.961 73.8031 143.105Z" fill="white"/>
</g>
<path d="M65.7743 167.387V152.324H71.0403C72.0895 152.324 72.9549 152.506 73.6365 152.869C74.318 153.226 74.8255 153.709 75.1589 154.317C75.4923 154.921 75.659 155.59 75.659 156.325C75.659 156.972 75.5438 157.507 75.3133 157.929C75.0878 158.35 74.7887 158.684 74.4161 158.929C74.0483 159.174 73.6487 159.355 73.2173 159.473V159.62C73.6781 159.65 74.1415 159.811 74.6073 160.106C75.0731 160.4 75.4629 160.821 75.7767 161.371C76.0905 161.92 76.2474 162.591 76.2474 163.386C76.2474 164.141 76.0758 164.82 75.7326 165.423C75.3893 166.026 74.8475 166.504 74.1072 166.857C73.3668 167.21 72.4033 167.387 71.2168 167.387H65.7743ZM67.5983 165.769H71.2168C72.4082 165.769 73.254 165.538 73.7541 165.077C74.2592 164.612 74.5117 164.048 74.5117 163.386C74.5117 162.876 74.3817 162.405 74.1219 161.974C73.862 161.537 73.4918 161.189 73.0113 160.929C72.5308 160.665 71.9621 160.532 71.305 160.532H67.5983V165.769ZM67.5983 158.944H70.9814C71.5306 158.944 72.0258 158.836 72.4671 158.62C72.9133 158.404 73.2663 158.1 73.5262 157.708C73.7909 157.316 73.9233 156.855 73.9233 156.325C73.9233 155.663 73.6929 155.102 73.232 154.641C72.7711 154.175 72.0405 153.942 71.0403 153.942H67.5983V158.944ZM82.3334 167.651C81.6175 167.651 80.9679 167.517 80.3844 167.247C79.8009 166.972 79.3376 166.578 78.9944 166.063C78.6511 165.543 78.4795 164.916 78.4795 164.18C78.4795 163.533 78.607 163.008 78.862 162.606C79.1169 162.199 79.4577 161.881 79.8843 161.65C80.3109 161.42 80.7816 161.248 81.2964 161.135C81.8161 161.018 82.3383 160.924 82.8629 160.856C83.5494 160.767 84.1059 160.701 84.5324 160.657C84.9639 160.608 85.2777 160.527 85.4738 160.414C85.6749 160.302 85.7754 160.106 85.7754 159.826V159.767C85.7754 159.042 85.5768 158.478 85.1797 158.076C84.7874 157.674 84.1917 157.473 83.3925 157.473C82.5638 157.473 81.9142 157.654 81.4435 158.017C80.9728 158.38 80.6418 158.767 80.4506 159.179L78.8031 158.591C79.0973 157.904 79.4896 157.37 79.9799 156.987C80.4751 156.6 81.0144 156.33 81.5979 156.178C82.1863 156.021 82.7649 155.943 83.3336 155.943C83.6965 155.943 84.1132 155.987 84.5839 156.075C85.0595 156.159 85.518 156.333 85.9593 156.597C86.4054 156.862 86.7756 157.262 87.0698 157.796C87.364 158.331 87.5111 159.047 87.5111 159.944V167.387H85.7754V165.857H85.6871C85.5695 166.102 85.3733 166.364 85.0988 166.644C84.8242 166.923 84.4589 167.161 84.0029 167.357C83.5469 167.553 82.9904 167.651 82.3334 167.651ZM82.5982 166.092C83.2846 166.092 83.8632 165.957 84.3339 165.688C84.8095 165.418 85.1674 165.07 85.4076 164.643C85.6528 164.217 85.7754 163.768 85.7754 163.298V161.709C85.7018 161.797 85.54 161.878 85.29 161.952C85.0448 162.02 84.7604 162.082 84.4368 162.135C84.1181 162.185 83.8068 162.229 83.5028 162.268C83.2037 162.302 82.961 162.332 82.7747 162.356C82.3236 162.415 81.9019 162.511 81.5097 162.643C81.1223 162.77 80.8085 162.964 80.5683 163.224C80.3329 163.479 80.2152 163.827 80.2152 164.268C80.2152 164.871 80.4383 165.327 80.8845 165.636C81.3356 165.94 81.9068 166.092 82.5982 166.092ZM94.9448 167.622C94.0034 167.622 93.1724 167.384 92.4516 166.909C91.7308 166.428 91.167 165.752 90.76 164.879C90.3531 164.001 90.1496 162.964 90.1496 161.768C90.1496 160.581 90.3531 159.552 90.76 158.679C91.167 157.806 91.7333 157.132 92.459 156.656C93.1846 156.181 94.0231 155.943 94.9743 155.943C95.7097 155.943 96.2907 156.065 96.7173 156.311C97.1488 156.551 97.4773 156.825 97.7028 157.134C97.9333 157.438 98.1123 157.688 98.2397 157.884H98.3868V152.324H100.123V167.387H98.4457V165.651H98.2397C98.1123 165.857 97.9308 166.117 97.6955 166.431C97.4601 166.74 97.1243 167.017 96.6879 167.262C96.2515 167.502 95.6705 167.622 94.9448 167.622ZM95.1802 166.063C95.8764 166.063 96.4648 165.881 96.9453 165.519C97.4258 165.151 97.7911 164.643 98.0412 163.996C98.2912 163.344 98.4163 162.591 98.4163 161.738C98.4163 160.895 98.2937 160.157 98.0485 159.525C97.8034 158.887 97.4405 158.392 96.96 158.039C96.4795 157.681 95.8862 157.502 95.1802 157.502C94.4447 157.502 93.8318 157.691 93.3415 158.068C92.8561 158.441 92.4908 158.948 92.2457 159.591C92.0054 160.228 91.8853 160.944 91.8853 161.738C91.8853 162.542 92.0079 163.273 92.253 163.93C92.5031 164.582 92.8708 165.102 93.3562 165.489C93.8465 165.872 94.4545 166.063 95.1802 166.063ZM108.102 171.858C107.264 171.858 106.543 171.751 105.94 171.535C105.337 171.324 104.834 171.044 104.432 170.696C104.035 170.353 103.719 169.985 103.484 169.593L104.866 168.622C105.023 168.828 105.222 169.064 105.462 169.328C105.702 169.598 106.031 169.831 106.448 170.027C106.869 170.228 107.421 170.329 108.102 170.329C109.014 170.329 109.767 170.108 110.36 169.667C110.954 169.225 111.25 168.534 111.25 167.593V165.298H111.103C110.976 165.504 110.794 165.759 110.559 166.063C110.328 166.362 109.995 166.629 109.559 166.865C109.127 167.095 108.544 167.21 107.808 167.21C106.896 167.21 106.077 166.994 105.352 166.563C104.631 166.132 104.06 165.504 103.638 164.68C103.221 163.856 103.013 162.856 103.013 161.679C103.013 160.522 103.216 159.515 103.623 158.657C104.03 157.794 104.597 157.127 105.322 156.656C106.048 156.181 106.886 155.943 107.838 155.943C108.573 155.943 109.157 156.065 109.588 156.311C110.024 156.551 110.358 156.825 110.588 157.134C110.824 157.438 111.005 157.688 111.133 157.884H111.309V156.09H112.986V167.71C112.986 168.681 112.765 169.471 112.324 170.079C111.888 170.691 111.299 171.14 110.559 171.424C109.823 171.714 109.005 171.858 108.102 171.858ZM108.044 165.651C108.74 165.651 109.328 165.492 109.809 165.173C110.289 164.854 110.654 164.396 110.905 163.798C111.155 163.199 111.28 162.484 111.28 161.65C111.28 160.836 111.157 160.118 110.912 159.495C110.667 158.872 110.304 158.385 109.823 158.032C109.343 157.679 108.75 157.502 108.044 157.502C107.308 157.502 106.695 157.688 106.205 158.061C105.719 158.434 105.354 158.934 105.109 159.561C104.869 160.189 104.749 160.885 104.749 161.65C104.749 162.435 104.871 163.128 105.116 163.731C105.366 164.33 105.734 164.8 106.22 165.144C106.71 165.482 107.318 165.651 108.044 165.651ZM120.9 167.622C119.811 167.622 118.872 167.382 118.083 166.901C117.298 166.416 116.693 165.739 116.266 164.871C115.844 163.999 115.634 162.984 115.634 161.827C115.634 160.669 115.844 159.65 116.266 158.767C116.693 157.88 117.286 157.188 118.046 156.693C118.811 156.193 119.703 155.943 120.723 155.943C121.311 155.943 121.892 156.041 122.466 156.237C123.04 156.433 123.562 156.752 124.033 157.193C124.503 157.629 124.878 158.208 125.158 158.929C125.437 159.65 125.577 160.537 125.577 161.591V162.327H116.869V160.826H123.812C123.812 160.189 123.685 159.62 123.43 159.12C123.179 158.62 122.822 158.225 122.356 157.936C121.895 157.647 121.351 157.502 120.723 157.502C120.032 157.502 119.433 157.674 118.928 158.017C118.428 158.355 118.043 158.796 117.774 159.341C117.504 159.885 117.369 160.468 117.369 161.091V162.091C117.369 162.944 117.516 163.668 117.811 164.261C118.11 164.849 118.524 165.298 119.054 165.607C119.583 165.911 120.198 166.063 120.9 166.063C121.356 166.063 121.767 165.999 122.135 165.872C122.508 165.739 122.829 165.543 123.099 165.283C123.368 165.019 123.577 164.69 123.724 164.298L125.401 164.768C125.224 165.337 124.927 165.837 124.511 166.269C124.094 166.695 123.579 167.029 122.966 167.269C122.353 167.504 121.664 167.622 120.9 167.622Z" fill="#2E3E8C"/>
<path d="M58.0083 189.387V174.324H67.0399V175.942H59.8323V181.032H66.3632V182.65H59.8323V189.387H58.0083ZM71.6641 174.324V189.387H69.9284V174.324H71.6641ZM79.4325 189.622C78.4127 189.622 77.5179 189.379 76.7481 188.894C75.9832 188.409 75.385 187.729 74.9535 186.857C74.5269 185.984 74.3137 184.964 74.3137 183.797C74.3137 182.62 74.5269 181.593 74.9535 180.716C75.385 179.838 75.9832 179.156 76.7481 178.671C77.5179 178.186 78.4127 177.943 79.4325 177.943C80.4524 177.943 81.3447 178.186 82.1096 178.671C82.8794 179.156 83.4776 179.838 83.9042 180.716C84.3356 181.593 84.5514 182.62 84.5514 183.797C84.5514 184.964 84.3356 185.984 83.9042 186.857C83.4776 187.729 82.8794 188.409 82.1096 188.894C81.3447 189.379 80.4524 189.622 79.4325 189.622ZM79.4325 188.063C80.2072 188.063 80.8446 187.864 81.3447 187.467C81.8449 187.07 82.215 186.548 82.4553 185.901C82.6956 185.253 82.8157 184.552 82.8157 183.797C82.8157 183.042 82.6956 182.338 82.4553 181.686C82.215 181.034 81.8449 180.507 81.3447 180.105C80.8446 179.703 80.2072 179.502 79.4325 179.502C78.6578 179.502 78.0204 179.703 77.5203 180.105C77.0202 180.507 76.65 181.034 76.4097 181.686C76.1695 182.338 76.0494 183.042 76.0494 183.797C76.0494 184.552 76.1695 185.253 76.4097 185.901C76.65 186.548 77.0202 187.07 77.5203 187.467C78.0204 187.864 78.6578 188.063 79.4325 188.063ZM89.3761 189.387L85.9341 178.09H87.758L90.1998 186.739H90.3175L92.7298 178.09H94.5832L96.9661 186.71H97.0838L99.5255 178.09H101.349L97.9075 189.387H96.2012L93.73 180.708H93.5535L91.0823 189.387H89.3761Z" fill="#2E3E8C"/>
<path d="M59.0311 59.902C25.7251 74.308 8.11607 115.798 19.5721 150.097C19.7731 150.698 20.6361 150.454 20.5161 149.837C16.8161 130.853 16.8141 112.021 25.6251 94.302C32.9641 79.544 44.9961 68.281 59.7321 61.101C60.5471 60.703 59.8331 59.555 59.0311 59.902Z" fill="white"/>
<path d="M92.6821 52.959C91.8751 52.964 91.9261 54.083 92.6821 54.178C111.12 56.492 127.703 62.636 140.749 76.434C153.737 90.17 160.364 108.635 160.079 127.43C160.062 128.513 161.736 128.512 161.761 127.43C162.631 89.808 131.965 52.711 92.6821 52.959Z" fill="white"/>
<path d="M63.3411 114.57C62.6661 114.677 61.9911 114.769 61.3141 114.85C61.0181 113.846 60.7211 112.843 60.4251 111.839C60.1681 110.968 59.0601 111.076 58.7621 111.839C58.3291 112.947 57.8971 114.058 57.4691 115.171C56.6291 115.213 55.7881 115.244 54.9451 115.251C54.0551 115.258 53.6661 116.519 54.4811 116.963C55.1231 117.314 55.7561 117.681 56.3961 118.036C56.2271 118.501 56.0621 118.967 55.8991 119.433C55.7511 119.561 55.5951 119.679 55.4481 119.81C55.0651 120.152 55.1201 120.66 55.3701 121.03C55.2721 121.678 56.2971 122.099 56.6001 121.442C56.6241 121.39 56.6461 121.337 56.6701 121.285C57.4541 120.691 58.2431 120.103 59.0271 119.509C59.8471 119.972 60.6751 120.42 61.4911 120.89C62.1541 121.271 63.0241 120.639 62.8001 119.883C62.5521 119.043 62.3041 118.202 62.0561 117.362C62.7111 116.984 63.3801 116.625 64.0661 116.29C65.1011 115.786 64.3131 114.416 63.3411 114.57Z" fill="white"/>
<path d="M37.8731 103.746C36.7541 103.776 35.6351 103.806 34.5171 103.836C34.0051 102.35 33.4931 100.864 32.9811 99.378C32.6891 98.529 31.5551 98.535 31.2601 99.378C30.7301 100.893 30.2661 102.423 29.8421 103.962C28.7861 103.991 27.7311 104.018 26.6751 104.047C25.7001 104.073 25.3611 105.347 26.1831 105.863C27.1051 106.442 28.0301 107.014 28.9531 107.591C28.7851 108.388 28.6391 109.191 28.5051 109.996C28.3491 110.134 28.1951 110.27 28.0451 110.401C27.3891 110.974 27.9591 111.992 28.6771 112.055C28.8981 112.137 29.1461 112.091 29.2911 111.868C30.3191 111.153 31.3461 110.439 32.3741 109.724C33.4011 110.363 34.4251 111.007 35.4531 111.645C36.1271 112.063 37.1101 111.364 36.8391 110.579C36.4721 109.514 36.1061 108.449 35.7391 107.384C36.6141 106.776 37.4891 106.167 38.3641 105.558C39.1101 105.04 38.9031 103.718 37.8731 103.746Z" fill="white"/>
<path d="M44.7021 127.189C43.7771 127.188 42.8511 127.188 41.9251 127.188C41.7011 126.534 41.4751 125.881 41.2501 125.227C40.9961 124.49 40.0091 124.494 39.7541 125.227C39.5271 125.878 39.2991 126.531 39.0751 127.186C38.0721 127.186 37.0691 127.185 36.0661 127.185C35.1041 127.185 34.8741 128.647 35.8361 128.883C36.6821 129.09 37.4801 129.392 38.2341 129.766C37.9981 130.524 37.7801 131.287 37.5771 132.053C37.5441 132.089 37.5091 132.122 37.4761 132.158C37.1901 132.472 37.1721 132.831 37.3001 133.126C37.2801 133.208 37.2561 133.289 37.2371 133.372C37.1111 133.918 37.9461 134.344 38.1931 133.775C38.2061 133.746 38.2161 133.717 38.2291 133.688C38.4101 133.67 38.5941 133.608 38.7651 133.448C39.4571 132.802 40.1811 132.205 40.9211 131.63C41.4171 132.099 41.8771 132.615 42.2941 133.183C42.7921 133.861 44.0991 133.498 43.7731 132.56C43.4971 131.766 43.2261 130.971 42.9521 130.176C43.6651 129.708 44.3921 129.257 45.1481 128.844C45.9331 128.416 45.5671 127.19 44.7021 127.189Z" fill="white"/>
<path d="M127.412 109.153C125.861 109.076 124.31 108.999 122.759 108.922C122.153 107.152 121.588 105.367 121.091 103.554C120.888 102.815 119.713 102.564 119.352 103.327C118.533 105.057 117.796 106.833 117.164 108.645C115.748 108.575 114.331 108.504 112.915 108.434C111.902 108.384 111.654 109.754 112.423 110.249C113.615 111.016 114.807 111.783 115.999 112.549C115.598 114.16 115.285 115.793 115.099 117.446C115.056 117.826 115.345 118.045 115.663 118.077C115.97 118.39 116.465 118.534 116.861 118.272C118.182 117.398 119.502 116.525 120.823 115.652C122.042 116.436 123.26 117.22 124.479 118.004C125.372 118.579 126.174 117.486 125.808 116.675C125.305 115.559 124.829 114.435 124.374 113.304C125.551 112.526 126.727 111.747 127.904 110.969C128.718 110.431 128.394 109.202 127.412 109.153Z" fill="white"/>
<path d="M134.499 81.263C133.568 81.476 132.636 81.688 131.705 81.901C131.024 81.043 130.301 80.2139 129.482 79.4469C128.985 78.9809 128.069 79.293 128.09 80.024C128.109 80.698 128.102 81.366 128.086 82.031C128.033 82.106 127.986 82.191 127.96 82.299C127.921 82.458 127.889 82.621 127.851 82.781C127.303 82.906 126.755 83.031 126.206 83.156C125.504 83.316 125.273 84.485 125.992 84.797C126.42 84.983 126.85 85.163 127.28 85.345C127.106 86.191 126.942 87.039 126.8 87.886C126.705 88.453 127.269 88.777 127.664 88.595C127.694 89.178 128.631 89.257 128.791 88.67C128.843 88.479 128.874 88.279 128.921 88.086C129.013 88.05 129.105 88.01 129.192 87.938C129.626 87.519 130.086 87.1319 130.532 86.7269C131.629 87.1919 132.722 87.67 133.823 88.125C134.583 88.439 135.052 87.463 134.78 86.88C134.362 85.982 133.887 85.131 133.382 84.302C133.979 83.827 134.564 83.338 135.183 82.888C135.977 82.308 135.528 81.028 134.499 81.263Z" fill="white"/>
<path d="M151.535 113.241C150.825 113.471 150.115 113.7 149.405 113.93C149.109 113.734 148.739 113.691 148.454 113.893C148.033 113.197 147.613 112.501 147.192 111.805C146.846 111.232 145.789 111.263 145.656 112.006C145.654 112.02 145.652 112.034 145.649 112.048C145.632 112.073 145.608 112.091 145.594 112.119C145.143 113.054 144.755 114.25 144.481 115.523C143.869 115.721 143.258 115.919 142.646 116.117C141.891 116.361 141.731 117.659 142.646 117.814C143.141 117.898 143.626 118.015 144.113 118.121C144.012 119.605 144.107 121.045 144.51 122.182C144.659 122.602 145.19 122.647 145.414 122.297C145.618 122.748 146.411 122.57 146.42 122.032C146.429 121.509 146.446 120.994 146.46 120.478C146.861 120.002 147.268 119.533 147.689 119.079C148.565 119.371 149.435 119.687 150.29 120.059C151.022 120.377 151.954 119.689 151.467 118.882C151.023 118.147 150.579 117.412 150.134 116.676C150.87 116.011 151.622 115.362 152.412 114.749C153.137 114.187 152.349 112.978 151.535 113.241Z" fill="white"/>
</svg>
