<svg width="1241" height="1066" viewBox="0 0 1241 1066" fill="none" xmlns="http://www.w3.org/2000/svg">
<path d="M966.219 135.95L1000.48 194.019C1000.48 194.019 1011.16 193.343 1028.14 189.796L982.158 111.846C976.664 119.376 971.334 127.394 966.219 135.95Z" fill="url(#paint0_linear_13_6566)"/>
<path d="M1192.9 92.891L1142.1 6.70703C1094.17 17.181 1036.94 42.731 990.086 101.473L1040.5 186.961C1081.23 176.698 1145.02 151.916 1192.9 92.891ZM1103.87 119.852C1083.2 115.502 1069.95 95.212 1074.31 74.53C1078.66 53.854 1098.95 40.62 1119.63 44.97C1140.31 49.322 1153.54 69.611 1149.19 90.286C1144.84 110.968 1124.55 124.204 1103.87 119.852Z" fill="url(#paint1_linear_13_6566)"/>
<path d="M1240.79 2.62591C1240.79 2.62591 1204.06 -4.2591 1154.68 4.2679L1200.84 82.5629C1216.94 60.5299 1230.82 34.1809 1240.79 2.62591Z" fill="url(#paint2_linear_13_6566)"/>
<path d="M1079 194.87L1082.54 185.196L1073.38 189.9C1073.25 189.964 1060.81 196.303 1051.34 196.975L1047.74 197.256L1047.6 200.866C1047.56 201.895 1046.26 226.182 1011.48 238.598L986.431 247.542L1013.01 246.418C1013.49 246.395 1061.06 243.825 1079 194.87Z" fill="url(#paint3_linear_13_6566)"/>
<path d="M999.168 72.9449L1006.97 66.2069L996.667 65.8669C944.555 64.1529 924.344 107.293 924.146 107.729L913.143 131.945L930.824 112.073C955.372 84.4789 978.376 92.3729 979.32 92.7219L982.745 94.0049L984.351 90.7189C988.521 82.1989 999.062 73.0359 999.168 72.9449Z" fill="url(#paint4_linear_13_6566)"/>
<path d="M1111.75 105.084C1124.27 105.084 1134.43 94.9315 1134.43 82.4079C1134.43 69.8843 1124.27 59.7319 1111.75 59.7319C1099.23 59.7319 1089.08 69.8843 1089.08 82.4079C1089.08 94.9315 1099.23 105.084 1111.75 105.084Z" fill="url(#paint5_linear_13_6566)"/>
<path d="M901.607 239.577L1007.29 159.662L997.506 145.79C940.729 166.735 864.515 198.482 864.515 198.482C733.169 254.162 556.203 341.754 420.498 455.417C420.498 455.417 385.763 486.533 354.126 535.853C278.597 653.629 350.562 809.539 489.036 829.607C597.792 845.371 759.816 837.475 978.206 746.813C1001.54 688.556 1014.37 624.952 1014.37 558.361C1014.37 437.569 972.119 326.675 901.607 239.577ZM552.803 669.749C547.238 636.851 542.714 632.327 509.816 626.762C542.714 621.197 547.238 616.673 552.803 583.775C558.368 616.673 562.892 621.197 595.79 626.762C562.892 632.327 558.369 636.85 552.803 669.749ZM715.595 626.761C705.15 626.761 696.706 618.29 696.706 607.872C696.706 597.427 705.15 588.983 715.595 588.983C726.04 588.983 734.484 597.427 734.484 607.872C734.484 618.29 726.04 626.761 715.595 626.761ZM734.484 508.766C725.629 456.403 718.446 449.22 666.083 440.365C718.446 431.483 725.629 424.3 734.484 371.964C743.339 424.3 750.522 431.483 802.885 440.365C750.522 449.221 743.339 456.404 734.484 508.766Z" fill="url(#paint6_linear_13_6566)"/>
<path d="M178.144 840.436C178.144 840.436 98.009 658.673 270.012 496.457C270.012 496.457 439.931 311.788 847.87 182.635C757.838 100.965 638.308 51.179 507.181 51.179C227.08 51.179 0 278.259 0 558.36C0 838.461 227.08 1065.54 507.181 1065.54C555.322 1065.54 601.901 1058.82 646.012 1046.3C504.001 1046.27 251.315 1019.92 178.144 840.436ZM537.398 250.22C537.398 260.654 528.94 269.112 518.506 269.112C508.072 269.112 499.614 260.654 499.614 250.22C499.614 239.786 508.072 231.328 518.506 231.328C528.939 231.328 537.398 239.786 537.398 250.22ZM450.103 91.9179C458.964 144.275 466.148 151.459 518.505 160.32C466.148 169.181 458.964 176.365 450.103 228.722C441.242 176.365 434.058 169.181 381.701 160.32C434.058 151.459 441.242 144.275 450.103 91.9179ZM323.588 259.992C329.158 292.902 333.673 297.418 366.584 302.988C333.674 308.558 329.158 313.073 323.588 345.984C318.018 313.074 313.503 308.558 280.592 302.988C313.503 297.418 318.018 292.902 323.588 259.992ZM134.502 427.415C115.793 427.415 100.627 412.248 100.627 393.54C100.627 374.831 115.794 359.665 134.502 359.665C153.211 359.665 168.378 374.832 168.378 393.54C168.378 412.248 153.211 427.415 134.502 427.415Z" fill="url(#paint7_linear_13_6566)"/>
<defs>
<linearGradient id="paint0_linear_13_6566" x1="496.998" y1="1331.85" x2="946.495" y2="281.337" gradientUnits="userSpaceOnUse">
<stop stop-color="#003061"/>
<stop offset="0.9793" stop-color="#7426FF"/>
</linearGradient>
<linearGradient id="paint1_linear_13_6566" x1="552.957" y1="1355.79" x2="1002.45" y2="305.28" gradientUnits="userSpaceOnUse">
<stop stop-color="#003061"/>
<stop offset="0.9793" stop-color="#7426FF"/>
</linearGradient>
<linearGradient id="paint2_linear_13_6566" x1="609.521" y1="1380" x2="1059.02" y2="329.49" gradientUnits="userSpaceOnUse">
<stop stop-color="#003061"/>
<stop offset="0.9793" stop-color="#7426FF"/>
</linearGradient>
<linearGradient id="paint3_linear_13_6566" x1="548.186" y1="1353.75" x2="997.682" y2="303.242" gradientUnits="userSpaceOnUse">
<stop stop-color="#003061"/>
<stop offset="0.9793" stop-color="#7426FF"/>
</linearGradient>
<linearGradient id="paint4_linear_13_6566" x1="442.541" y1="1308.55" x2="892.035" y2="258.043" gradientUnits="userSpaceOnUse">
<stop stop-color="#003061"/>
<stop offset="0.9793" stop-color="#7426FF"/>
</linearGradient>
<linearGradient id="paint5_linear_13_6566" x1="564.734" y1="1360.83" x2="1014.23" y2="310.322" gradientUnits="userSpaceOnUse">
<stop stop-color="#003061"/>
<stop offset="0.9793" stop-color="#7426FF"/>
</linearGradient>
<linearGradient id="paint6_linear_13_6566" x1="472.356" y1="1090.81" x2="852.445" y2="202.513" gradientUnits="userSpaceOnUse">
<stop stop-color="#003061"/>
<stop offset="0.9793" stop-color="#7426FF"/>
</linearGradient>
<linearGradient id="paint7_linear_13_6566" x1="222.927" y1="984.086" x2="603.016" y2="95.7844" gradientUnits="userSpaceOnUse">
<stop stop-color="#003061"/>
<stop offset="0.9793" stop-color="#7426FF"/>
</linearGradient>
</defs>
</svg>
